<svg xmlns="http://www.w3.org/2000/svg" version="1.1" xmlns:xlink="http://www.w3.org/1999/xlink" xmlns:svgjs="http://svgjs.dev/svgjs" width="1000" height="623" viewBox="0 0 1000 623"><g transform="matrix(1,0,0,1,-0.6060606060606233,0.2522267206477409)"><svg viewBox="0 0 396 247" data-background-color="#140101" preserveAspectRatio="xMidYMid meet" height="623" width="1000" xmlns="http://www.w3.org/2000/svg" xmlns:xlink="http://www.w3.org/1999/xlink"><g id="tight-bounds" transform="matrix(1,0,0,1,0.2400000000000091,-0.09999999999999432)"><svg viewBox="0 0 395.52 247.2" height="247.2" width="395.52"><g><svg></svg></g><g><svg viewBox="0 0 395.52 247.2" height="247.2" width="395.52"><g transform="matrix(1,0,0,1,75.54432000000001,83.70628778100374)"><svg viewBox="0 0 244.43135999999996 79.78742443799251" height="79.78742443799251" width="244.43135999999996"><g><svg viewBox="0 0 244.43135999999996 79.78742443799251" height="79.78742443799251" width="244.43135999999996"><g><svg viewBox="0 0 244.43135999999996 79.78742443799251" height="79.78742443799251" width="244.43135999999996"><g><svg viewBox="0 0 244.43135999999996 79.78742443799251" height="79.78742443799251" width="244.43135999999996"><g><svg viewBox="0 0 244.43135999999996 79.78742443799251" height="79.78742443799251" width="244.43135999999996"><g><svg viewBox="0 0 244.43135999999996 79.78742443799251" height="79.78742443799251" width="244.43135999999996"><g transform="matrix(1,0,0,1,0,0)"><svg width="244.43135999999996" viewBox="5 -39.04999923706055 120.54000091552734 39.349998474121094" height="79.78742443799251" data-palette-color="#ffffff"><path d="M6.5 0L6.5 0Q5.85 0 5.43-0.43 5-0.85 5-1.5L5-1.5 5-37.55Q5-38.2 5.43-38.63 5.85-39.05 6.5-39.05L6.5-39.05Q7.15-39.05 7.58-38.63 8-38.2 8-37.55L8-37.55 8-1.5Q8-0.85 7.58-0.43 7.15 0 6.5 0ZM55.15 0L55.15 0Q54.5 0 54.07-0.43 53.65-0.85 53.65-1.5L53.65-1.5 53.65-15.95Q53.65-19.8 51.62-22.25 49.6-24.7 46.35-24.7L46.35-24.7Q42.9-24.7 40.72-22.43 38.55-20.15 38.65-16.3L38.65-16.3 35.65-16.3Q35.75-19.75 37.15-22.3 38.55-24.85 40.95-26.28 43.35-27.7 46.35-27.7L46.35-27.7Q49.4-27.7 51.7-26.2 54-24.7 55.32-22.05 56.65-19.4 56.65-15.95L56.65-15.95 56.65-1.5Q56.65-0.85 56.25-0.43 55.85 0 55.15 0ZM19 0L19 0Q18.35 0 17.92-0.43 17.5-0.85 17.5-1.5L17.5-1.5 17.5-25.85Q17.5-26.55 17.92-26.95 18.35-27.35 19-27.35L19-27.35Q19.7-27.35 20.1-26.95 20.5-26.55 20.5-25.85L20.5-25.85 20.5-1.5Q20.5-0.85 20.1-0.43 19.7 0 19 0ZM37.15 0L37.15 0Q36.5 0 36.07-0.43 35.65-0.85 35.65-1.5L35.65-1.5 35.65-15.95Q35.65-19.8 33.62-22.25 31.6-24.7 28.35-24.7L28.35-24.7Q24.9-24.7 22.7-22.5 20.5-20.3 20.5-16.8L20.5-16.8 18-16.8Q18.15-20 19.52-22.45 20.9-24.9 23.2-26.3 25.5-27.7 28.35-27.7L28.35-27.7Q31.4-27.7 33.7-26.2 36-24.7 37.32-22.05 38.65-19.4 38.65-15.95L38.65-15.95 38.65-1.5Q38.65-0.85 38.25-0.43 37.85 0 37.15 0ZM77.65 0.3L77.65 0.3Q73.65 0.3 70.47-1.53 67.3-3.35 65.47-6.53 63.65-9.7 63.65-13.65L63.65-13.65Q63.65-17.65 65.47-20.83 67.3-24 70.47-25.83 73.65-27.65 77.65-27.65L77.65-27.65Q81.65-27.65 84.8-25.83 87.95-24 89.77-20.83 91.6-17.65 91.6-13.65L91.6-13.65 90.35-11.65Q90.35-8.25 88.67-5.55 87-2.85 84.15-1.28 81.3 0.3 77.65 0.3ZM77.65-2.5L77.65-2.5Q80.8-2.5 83.27-3.98 85.75-5.45 87.17-7.98 88.6-10.5 88.6-13.65L88.6-13.65Q88.6-16.85 87.17-19.38 85.75-21.9 83.27-23.38 80.8-24.85 77.65-24.85L77.65-24.85Q74.55-24.85 72.05-23.38 69.55-21.9 68.1-19.38 66.65-16.85 66.65-13.65L66.65-13.65Q66.65-10.5 68.1-7.98 69.55-5.45 72.05-3.98 74.55-2.5 77.65-2.5ZM90.15 0L90.15 0Q89.45 0 89.02-0.43 88.6-0.85 88.6-1.5L88.6-1.5 88.6-10.65 89.55-13.65 91.6-13.65 91.6-1.5Q91.6-0.85 91.2-0.43 90.8 0 90.15 0ZM111.59 0.3L111.59 0.3Q107.59 0.3 104.42-1.53 101.24-3.35 99.42-6.53 97.59-9.7 97.59-13.7L97.59-13.7Q97.59-17.7 99.42-20.85 101.24-24 104.42-25.83 107.59-27.65 111.59-27.65L111.59-27.65Q115.19-27.65 118.07-26.1 120.94-24.55 122.54-21.95L122.54-21.95 122.54-37.55Q122.54-38.25 122.97-38.65 123.39-39.05 124.04-39.05L124.04-39.05Q124.74-39.05 125.14-38.65 125.54-38.25 125.54-37.55L125.54-37.55 125.54-13.4Q125.49-9.5 123.64-6.4 121.79-3.3 118.67-1.5 115.54 0.3 111.59 0.3ZM111.59-2.5L111.59-2.5Q114.74-2.5 117.22-3.98 119.69-5.45 121.12-7.98 122.54-10.5 122.54-13.7L122.54-13.7Q122.54-16.9 121.12-19.4 119.69-21.9 117.22-23.38 114.74-24.85 111.59-24.85L111.59-24.85Q108.49-24.85 105.99-23.38 103.49-21.9 102.04-19.4 100.59-16.9 100.59-13.7L100.59-13.7Q100.59-10.5 102.04-7.98 103.49-5.45 105.99-3.98 108.49-2.5 111.59-2.5Z" opacity="1" transform="matrix(1,0,0,1,0,0)" fill="#ffffff" class="undefined-text-0" data-fill-palette-color="primary" id="text-0"></path></svg></g></svg></g></svg></g></svg></g></svg></g></svg></g></svg></g><g><path d="M0 123.6c0-68.262 55.338-123.6 123.6-123.6 50.734 0 94.328 30.567 113.371 74.288h-3.936c-18.811-41.681-60.735-70.691-109.435-70.69-66.275 0-120.002 53.727-120.002 120.002 0 66.275 53.727 120.002 120.002 120.002 48.7 0 90.624-29.009 109.435-70.69l3.936 0c-19.044 43.722-62.638 74.288-113.371 74.288-68.262 0-123.6-55.338-123.6-123.6z" fill="#ffffff" stroke="transparent" data-fill-palette-color="tertiary"></path></g></svg></g><defs></defs></svg><rect width="395.52" height="247.2" fill="none" stroke="none" visibility="hidden"></rect></g></svg></g></svg>